<svg width="40" height="40" viewBox="0 0 40 40" fill="none" xmlns="http://www.w3.org/2000/svg">
<path d="M36.6667 20C36.6667 29.2042 29.2042 36.6667 20 36.6667C10.7959 36.6667 3.33337 29.2042 3.33337 20C3.33337 10.7959 10.7959 3.33337 20 3.33337C29.2042 3.33337 36.6667 10.7959 36.6667 20Z" fill="url(#paint0_linear_29_22)"/>
<path opacity="0.05" d="M8.43247 19.5551C15.2283 16.4759 23.21 13.1351 24.4391 12.6517C27.1491 11.5859 28.3308 12.6751 28.1458 14.4126C27.9183 16.5417 26.84 22.7376 26.1766 27.1767C25.7883 29.7742 24.3816 30.5701 22.7941 29.5626C21.59 28.7984 17.45 26.0876 16.3608 25.1609C15.6183 24.5292 15.1008 23.8209 15.6275 23.0992C15.7816 22.8884 16.1758 22.4634 16.395 22.2517C17.4941 21.1867 17.3458 20.9576 16.0166 21.9084C15.8583 22.0217 14.94 22.6876 14.5625 22.9392C13.6375 23.5559 12.7866 23.5892 11.3441 23.0992C10.1641 22.6984 9.03081 22.3892 8.3158 22.0801C7.32831 21.6526 6.94997 20.2267 8.43247 19.5551Z" fill="black"/>
<path opacity="0.07" d="M9.02998 19.6591C15.34 16.8383 23.1 13.6058 24.235 13.1483C26.955 12.05 27.9558 12.7016 27.6633 14.8241C27.3916 16.7891 26.4275 22.8691 25.7517 26.9449C25.3533 29.3441 24.19 29.8725 22.675 28.8925C21.7258 28.2808 17.9058 25.7641 16.9791 25.0316C16.2625 24.4658 15.52 23.8125 16.3875 22.8666C16.6775 22.5508 18.2791 21.005 19.4766 19.855C20.1708 19.1875 19.9233 18.8583 19.0858 19.4316C17.55 20.4841 15.0375 22.15 14.5891 22.4525C13.735 23.0275 12.9325 23.1658 11.5358 22.7266C10.435 22.38 9.37165 22.0441 8.81748 21.8283C7.57915 21.3483 7.56248 20.315 9.02998 19.6591Z" fill="black"/>
<path d="M9.62751 19.7642C15.4525 17.2017 22.99 14.0776 24.0308 13.6451C26.76 12.5134 27.5975 12.7301 27.18 15.2367C26.88 17.0384 26.015 23.0026 25.325 26.7151C24.9158 28.9167 23.9975 29.1776 22.5542 28.2251C21.86 27.7667 18.3558 25.4492 17.595 24.9051C16.9008 24.4092 15.9433 23.8126 17.1442 22.6376C17.5717 22.2192 20.3725 19.5442 22.555 17.4626C22.8408 17.1892 22.4817 16.7401 22.1517 16.9592C19.21 18.9101 15.1317 21.6176 14.6125 21.9701C13.8283 22.5026 13.075 22.7467 11.7233 22.3584C10.7017 22.0651 9.70417 21.7151 9.31584 21.5817C7.82001 21.0684 8.17501 20.4034 9.62751 19.7642Z" fill="#EBEAFF"/>
<defs>
<linearGradient id="paint0_linear_29_22" x1="8.21504" y1="8.21504" x2="31.785" y2="31.785" gradientUnits="userSpaceOnUse">
<stop stop-color="#9694FF"/>
<stop offset="1" stop-color="#7F7DFF"/>
</linearGradient>
</defs>
</svg>
