<svg width="28" height="27" viewBox="0 0 28 27" fill="none" xmlns="http://www.w3.org/2000/svg">
<path d="M6.5 13.5L14 6.20833V10.5833H20V16.4167H14V20.7917L6.5 13.5ZM27.5 3.29167V23.7083C27.5 24.4819 27.1839 25.2237 26.6213 25.7707C26.0587 26.3177 25.2956 26.625 24.5 26.625H3.5C2.70435 26.625 1.94129 26.3177 1.37868 25.7707C0.81607 25.2237 0.5 24.4819 0.5 23.7083V3.29167C0.5 2.51812 0.81607 1.77625 1.37868 1.22927C1.94129 0.682291 2.70435 0.375 3.5 0.375H24.5C25.2956 0.375 26.0587 0.682291 26.6213 1.22927C27.1839 1.77625 27.5 2.51812 27.5 3.29167ZM24.5 3.29167H3.5V23.7083H24.5V3.29167Z"/>
</svg>
