<svg xmlns="http://www.w3.org/2000/svg" version="1.1" xmlns:xlink="http://www.w3.org/1999/xlink" xmlns:svgjs="http://svgjs.dev/svgjs" width="1500" height="1500" viewBox="0 0 1500 1500"><rect width="1500" height="1500" fill="#231239"></rect><g transform="matrix(0.6666666666666666,0,0,0.6666666666666666,248.5342153621932,202.2387096774193)"><svg viewBox="0 0 227 248" data-background-color="#231239" preserveAspectRatio="xMidYMid meet" height="1638" width="1500" xmlns="http://www.w3.org/2000/svg" xmlns:xlink="http://www.w3.org/1999/xlink"><g id="tight-bounds" transform="matrix(1,0,0,1,0.3327331127821367,0.4000000000000057)"><svg viewBox="0 0 226.3345337744357 247.2" height="247.2" width="226.3345337744357"><g><svg viewBox="0 0 395.52 431.98243931012223" height="247.2" width="226.3345337744357"><g transform="matrix(1,0,0,1,0,279.4892672734393)"><svg viewBox="0 0 395.52 152.49317203668292" height="152.49317203668292" width="395.52"><g id="textblocktransform"><svg viewBox="0 0 395.52 152.49317203668292" height="152.49317203668292" width="395.52" id="textblock"><g><svg viewBox="0 0 395.52 108.04448780487805" height="108.04448780487805" width="395.52"><g transform="matrix(1,0,0,1,0,0)"><svg width="395.52" viewBox="154.75 -37.5 307.5 79.5" height="108.04448780487805" data-palette-color="#f4ab4f"><svg></svg><svg></svg><g class="wordmark-text-0" data-fill-palette-color="primary" id="text-0"><path transform="translate(195.85,0)" d="M43.05-37.5v14.7h-21.25v0 0c0 0 0 0.007 0 0.02 0 0.02 0 0.03 0 0.03v0 2.9c0 0.033 0 0.05 0 0.05v0 0h20.5v11.9h-20.5v0c0 0 0 0.017 0 0.05v0c0 1.133 0 2.073 0 2.82 0 0.753 0 1.497 0 2.23 0 0.733 0 1.667 0 2.8v0h-20.8c0-2.367 0-4.733 0-7.1 0-2.367 0-4.727 0-7.08 0-2.347 0-4.703 0-7.07 0-2.367 0-4.733 0-7.1v0c0-1.533 0-3.06 0-4.58 0-1.513 0-3.037 0-4.57v0zM65.6-37.5h-20.75c0 1.667 0 3.373 0 5.12 0 1.753 0 3.513 0 5.28 0 1.767 0 3.533 0 5.3v0c0 1.333 0 2.673 0 4.02 0 1.353 0 2.663 0 3.93v0c0 2.033 0.45 3.873 1.35 5.52 0.9 1.653 2.143 3.087 3.73 4.3 1.58 1.22 3.413 2.247 5.5 3.08 2.08 0.833 4.313 1.45 6.7 1.85 2.38 0.4 4.787 0.6 7.22 0.6v0c3.067 0 6.06-0.317 8.98-0.95 2.913-0.633 5.537-1.593 7.87-2.88 2.333-1.28 4.193-2.88 5.58-4.8 1.38-1.913 2.07-4.153 2.07-6.72v0c0-2.533 0-5.143 0-7.83 0-2.68 0-5.353 0-8.02 0-2.667 0-5.267 0-7.8v0h-20.75c0 1.833 0 3.6 0 5.3 0 1.7 0 3.35 0 4.95 0 1.6 0 3.183 0 4.75 0 1.567 0 3.15 0 4.75v0c0 0.967-0.383 1.7-1.15 2.2-0.767 0.5-1.633 0.75-2.6 0.75v0c-0.467 0-0.927-0.067-1.38-0.2-0.447-0.133-0.843-0.327-1.19-0.58-0.353-0.247-0.637-0.553-0.85-0.92-0.22-0.367-0.33-0.8-0.33-1.3v0c0-3.167 0-6.333 0-9.5 0-3.167 0-6.567 0-10.2zM137.9-37.5v14.7h-21.25v0 0c0 0 0 0.007 0 0.02 0 0.02 0 0.03 0 0.03v0 2.9c0 0.033 0 0.05 0 0.05v0 0h20.5v11.9h-20.5v0c0 0 0 0.017 0 0.05v0c0 1.133 0 2.073 0 2.82 0 0.753 0 1.497 0 2.23 0 0.733 0 1.667 0 2.8v0h-20.8c0-2.367 0-4.733 0-7.1 0-2.367 0-4.727 0-7.08 0-2.347 0-4.703 0-7.07 0-2.367 0-4.733 0-7.1v0c0-1.533 0-3.06 0-4.58 0-1.513 0-3.037 0-4.57v0zM181.75-37.5v12.6h-21.75c-0.033 0-0.05 0-0.05 0v0 0 2.75c0 0.033 0 0.057 0 0.07 0 0.02 0 0.03 0 0.03 0 0 0.007 0 0.02 0 0.02 0 0.03 0 0.03 0v0h21v7.05h-21c0 0-0.01 0-0.03 0-0.013 0-0.02 0.007-0.02 0.02 0 0.02 0 0.047 0 0.08v0 2.8 0 0c0 0 0.007 0 0.02 0 0.02 0 0.03 0 0.03 0v0h22.05v12.1h-42.35c0-1.967 0-3.943 0-5.93 0-1.98 0-3.953 0-5.92 0-1.967 0-3.943 0-5.93 0-1.98 0-3.963 0-5.95 0-1.98 0-3.953 0-5.92v0c0-1.3 0-2.61 0-3.93 0-1.313 0-2.62 0-3.92v0zM204.7-14.8v0c0 0.033 0.007 0.057 0.02 0.07 0.02 0.02 0.047 0.03 0.08 0.03v0h19.5v14.7h-40.35c0-2.067 0-4.133 0-6.2 0-2.067 0-4.143 0-6.23 0-2.08 0-4.153 0-6.22 0-2.067 0-4.133 0-6.2v0c0-2.1 0-4.21 0-6.33 0-2.113 0-4.22 0-6.32v0h20.75c0 1.9 0 3.79 0 5.67 0 1.887 0 3.78 0 5.68 0 1.9 0 3.79 0 5.67 0 1.887 0 3.78 0 5.68z" fill="#f4ab4f" fill-rule="nonzero" stroke="none" stroke-width="1" stroke-linecap="butt" stroke-linejoin="miter" stroke-miterlimit="10" stroke-dasharray="" stroke-dashoffset="0" font-family="none" font-weight="none" font-size="none" text-anchor="none" style="mix-blend-mode: normal" data-fill-palette-color="primary" opacity="1"></path><path transform="translate(153.75,42)" d="M36.05-37.5h25.2c0 2.5 0 5 0 7.5 0 2.5 0 5 0 7.5 0 2.5 0 5 0 7.5 0 2.5 0 5 0 7.5 0 2.5 0 5 0 7.5v0h-19.25c0-3.467 0-6.933 0-10.4 0-3.467 0-6.933 0-10.4v0c0 0 0-0.01 0-0.03 0-0.013-0.007-0.02-0.02-0.02-0.02 0-0.037 0-0.05 0-0.02 0-0.03 0.007-0.03 0.02 0 0.02 0 0.03 0 0.03v0l-4.9 20.8h-12.75c-0.833-3.467-1.65-6.917-2.45-10.35-0.8-3.433-1.617-6.867-2.45-10.3v0c0 0 0-0.01 0-0.03 0-0.013-0.007-0.02-0.02-0.02-0.02 0-0.03 0-0.03 0 0 0-0.007 0-0.02 0-0.02 0-0.03 0.007-0.03 0.02 0 0.02 0 0.03 0 0.03v0c0 3.433 0 6.867 0 10.3 0 3.433 0 6.883 0 10.35v0h-18.25c0-2.5 0-5.01 0-7.53 0-2.513 0-5.03 0-7.55 0-2.513 0-5.03 0-7.55 0-2.513 0-5.02 0-7.52v0c0-1.233 0-2.46 0-3.68 0-1.213 0-2.437 0-3.67v0h26.65c0.5 2.067 0.983 4.123 1.45 6.17 0.467 2.053 0.943 4.113 1.43 6.18 0.48 2.067 0.953 4.133 1.42 6.2v0c0 0.033 0.01 0.057 0.03 0.07 0.013 0.02 0.027 0.02 0.04 0 0.02-0.013 0.03-0.037 0.03-0.07v0zM72.85-37.5h31.05c0.6 2.067 1.193 4.14 1.78 6.22 0.58 2.087 1.163 4.17 1.75 6.25 0.58 2.087 1.17 4.17 1.77 6.25 0.6 2.087 1.19 4.17 1.77 6.25 0.587 2.087 1.17 4.17 1.75 6.25 0.587 2.087 1.18 4.18 1.78 6.28v0h-22.3l-0.85-4.9c-0.133 0-0.25 0-0.35 0-0.1 0-0.217 0-0.35 0v0h-5.5c-0.1 0-0.2 0-0.3 0-0.1 0-0.2 0-0.3 0v0l-0.85 4.9h-21.35c0.6-2.1 1.193-4.193 1.78-6.28 0.58-2.08 1.163-4.163 1.75-6.25 0.58-2.08 1.163-4.163 1.75-6.25 0.58-2.08 1.163-4.163 1.75-6.25 0.58-2.08 1.163-4.163 1.75-6.25 0.58-2.08 1.153-4.153 1.72-6.22zM85.15-8.45v0c0 0.033 0 0.05 0 0.05 0 0 0.017 0 0.05 0v0h5.5c0.033 0 0.05-0.01 0.05-0.03 0-0.013 0-0.02 0-0.02v0 0c0 0-0.067-0.41-0.2-1.23-0.133-0.813-0.307-1.847-0.52-3.1-0.22-1.247-0.447-2.58-0.68-4-0.233-1.413-0.45-2.753-0.65-4.02-0.2-1.267-0.377-2.3-0.53-3.1-0.147-0.8-0.22-1.2-0.22-1.2v0c0 0-0.01 0-0.03 0-0.013 0-0.02 0-0.02 0v0c0 0-0.067 0.4-0.2 1.2-0.133 0.8-0.31 1.833-0.53 3.1-0.213 1.267-0.437 2.607-0.67 4.02-0.233 1.42-0.45 2.753-0.65 4-0.2 1.253-0.367 2.287-0.5 3.1-0.133 0.82-0.2 1.23-0.2 1.23zM115.6-37.5v0h36.15c2.933 0 5.367 0.523 7.3 1.57 1.933 1.053 3.383 2.403 4.35 4.05 0.967 1.653 1.45 3.397 1.45 5.23v0c0 1.9-0.523 3.74-1.57 5.52-1.053 1.787-2.637 3.247-4.75 4.38-2.12 1.133-4.763 1.7-7.93 1.7v0c-0.133 0-0.467 0-1 0-0.533 0-1.077 0-1.63 0-0.547 0-0.903 0-1.07 0v0c0 0 0 0.017 0 0.05 0 0.033 0 0.05 0 0.05v0c0 0 0 0.007 0 0.02 0 0.02 0 0.037 0 0.05 0 0.02 0 0.03 0 0.03v0h11.35l7.7 14.85h-23.75c-0.633-1.7-1.273-3.4-1.92-5.1-0.653-1.7-1.307-3.4-1.96-5.1-0.647-1.7-1.303-3.4-1.97-5.1v0h5.8c0.667 0 1.26-0.1 1.78-0.3 0.513-0.2 0.937-0.467 1.27-0.8 0.333-0.333 0.583-0.71 0.75-1.13 0.167-0.413 0.25-0.837 0.25-1.27v0c0-0.6-0.15-1.167-0.45-1.7-0.3-0.533-0.75-0.967-1.35-1.3-0.6-0.333-1.35-0.5-2.25-0.5v0h-5.7c0 0-0.007 0.007-0.02 0.02-0.02 0.02-0.037 0.03-0.05 0.03-0.02 0-0.03 0.017-0.03 0.05v0c0 2.167 0 3.757 0 4.77 0 1.02 0 1.653 0 1.9 0 0.253 0 0.347 0 0.28v0c0 0 0 0.173 0 0.52 0 0.353 0 0.83 0 1.43 0 0.6 0 1.283 0 2.05v0c0 1.1 0 2.317 0 3.65 0 1.333 0 2.657 0 3.97 0 1.32 0 2.53 0 3.63v0h-20.75c0-2.133 0-4.277 0-6.43 0-2.147 0-4.287 0-6.42 0-2.133 0-4.277 0-6.43 0-2.147 0-4.287 0-6.42v0c0-1.967 0-3.933 0-5.9 0-1.967 0-3.933 0-5.9zM218.6 0h-23.5l-7.25-18.75c0.667-1.567 1.317-3.133 1.95-4.7 0.633-1.567 1.273-3.127 1.92-4.68 0.653-1.547 1.307-3.103 1.96-4.67 0.647-1.567 1.287-3.133 1.92-4.7v0h22.5c-0.567 1.167-1.233 2.517-2 4.05-0.767 1.533-1.54 3.083-2.32 4.65-0.787 1.567-1.513 3.017-2.18 4.35-0.667 1.333-1.21 2.407-1.63 3.22-0.413 0.82-0.62 1.23-0.62 1.23v0c0 0 0.217 0.477 0.65 1.43 0.433 0.947 1 2.187 1.7 3.72 0.7 1.533 1.467 3.19 2.3 4.97 0.833 1.787 1.65 3.547 2.45 5.28 0.8 1.733 1.517 3.267 2.15 4.6zM187.85 0h-20.75c0-2.433 0-4.877 0-7.33 0-2.447 0-4.887 0-7.32 0-2.433 0-4.877 0-7.33 0-2.447 0-4.887 0-7.32v0c0-1.367 0-2.733 0-4.1 0-1.367 0-2.733 0-4.1v0h20.75c0 1.533 0 3.067 0 4.6 0 1.533 0 3.067 0 4.6 0 1.533 0 3.067 0 4.6 0 1.533 0 3.067 0 4.6v0c0 0.033 0 0.083 0 0.15 0 0.067 0 0.133 0 0.2v0c0 0.033 0 0.067 0 0.1 0 0.033 0 0.073 0 0.12 0 0.053 0 0.097 0 0.13v0c0 3.067 0 6.133 0 9.2 0 3.067 0 6.133 0 9.2zM261.6-37.5v12.6h-21.75c-0.033 0-0.05 0-0.05 0v0 0 2.75c0 0.033 0 0.057 0 0.07 0 0.02 0 0.03 0 0.03 0 0 0.01 0 0.03 0 0.013 0 0.02 0 0.02 0v0h21v7.05h-21c0 0-0.007 0-0.02 0-0.02 0-0.03 0.007-0.03 0.02 0 0.02 0 0.047 0 0.08v0 2.8 0 0c0 0 0.01 0 0.03 0 0.013 0 0.02 0 0.02 0v0h22.05v12.1h-42.35c0-1.967 0-3.943 0-5.93 0-1.98 0-3.953 0-5.92 0-1.967 0-3.943 0-5.93 0-1.98 0-3.963 0-5.95 0-1.98 0-3.953 0-5.92v0c0-1.3 0-2.61 0-3.93 0-1.313 0-2.62 0-3.92v0zM263.45-37.5h45.05v15.2h-12.05c0 0-0.007 0.007-0.02 0.02-0.02 0.02-0.037 0.03-0.05 0.03-0.02 0-0.03 0.017-0.03 0.05v0c0 1.467 0 2.94 0 4.42 0 1.487 0 2.97 0 4.45 0 1.487 0 2.97 0 4.45 0 1.487 0 2.973 0 4.46 0 1.48 0 2.953 0 4.42v0h-20.75c0-2.467 0-4.933 0-7.4 0-2.467 0-4.933 0-7.4 0-2.467 0-4.933 0-7.4v0c0 0 0-0.01 0-0.03 0-0.013-0.01-0.03-0.03-0.05-0.013-0.013-0.027-0.02-0.04-0.02-0.02 0-0.03 0-0.03 0v0h-12.05z" fill="#f4ab4f" fill-rule="nonzero" stroke="none" stroke-width="1" stroke-linecap="butt" stroke-linejoin="miter" stroke-miterlimit="10" stroke-dasharray="" stroke-dashoffset="0" font-family="none" font-weight="none" font-size="none" text-anchor="none" style="mix-blend-mode: normal" data-fill-palette-color="primary" opacity="1"></path></g></svg></g></svg></g><g transform="matrix(1,0,0,1,134.02495881037902,119.88688910985366)"><svg viewBox="0 0 127.47008237924193 32.60628292682927" height="32.60628292682927" width="127.47008237924193"><g transform="matrix(1,0,0,1,0,0)"><svg width="127.47008237924193" viewBox="3 -37.7 189.78 48.550000000000004" height="32.60628292682927" data-palette-color="#f4ab4f"><path d="M17.05-18.3Q20.4-17.55 22.33-15.63 24.25-13.7 24.25-9.9L24.25-9.9Q24.25-4.9 20.88-2.45 17.5 0 11.7 0L11.7 0 3 0 3-34.55 10.55-34.55Q16.5-34.55 19.75-32.3 23-30.05 23-25.75L23-25.75Q23-22.85 21.38-20.95 19.75-19.05 17.05-18.3L17.05-18.3ZM11.2-29.85L9.35-29.85 9.35-20.3 11.5-20.3Q16.55-20.3 16.55-25.2L16.55-25.2Q16.55-27.65 15.28-28.75 14-29.85 11.2-29.85L11.2-29.85ZM11.75-4.8Q14.65-4.8 16.15-6.03 17.65-7.25 17.65-10.15L17.65-10.15Q17.65-13.05 16.25-14.43 14.85-15.8 11.9-15.8L11.9-15.8 9.35-15.8 9.35-4.8 11.75-4.8ZM46.4-26.45L46.4 0 41.05 0 40.75-3.35Q39.5-1.3 37.95-0.28 36.4 0.75 34.35 0.75L34.35 0.75Q31.45 0.75 29.77-1.3 28.1-3.35 28.1-6.65L28.1-6.65 28.1-26.45 34.25-26.45 34.25-7Q34.25-3.9 36.35-3.9L36.35-3.9Q37.55-3.9 38.5-4.83 39.45-5.75 40.25-7.45L40.25-7.45 40.25-26.45 46.4-26.45ZM70.75-26.45L63.75 0.1Q62.45 4.9 59.55 7.65 56.65 10.4 51.8 10.85L51.8 10.85 51.1 6.5Q54.25 5.85 55.82 4.42 57.4 3 58.3 0L58.3 0 56 0 49.3-26.45 55.55-26.45 59.95-4.1 64.65-26.45 70.75-26.45ZM93.64-35.25Q97.69-35.25 100.02-33.08 102.34-30.9 102.34-27.35L102.34-27.35Q102.34-24.5 100.89-22.35 99.44-20.2 96.64-18.1L96.64-18.1 102.74-10.7Q104.09-14.65 104.79-18.35L104.79-18.35 109.74-17.1Q108.24-11.45 106.04-7.45L106.04-7.45 110.99-2.15 106.04 0.75 102.49-3.65Q100.54-1.4 98.29-0.33 96.04 0.75 93.29 0.75L93.29 0.75Q90.44 0.75 88.19-0.45 85.94-1.65 84.69-3.83 83.44-6 83.44-8.8L83.44-8.8Q83.44-11.85 84.82-14.08 86.19-16.3 89.19-18.6L89.19-18.6Q86.89-21 85.99-22.88 85.09-24.75 85.09-27.25L85.09-27.25Q85.09-30.75 87.29-33 89.49-35.25 93.64-35.25L93.64-35.25ZM93.74-31.15Q90.94-31.15 90.94-27.25L90.94-27.25Q90.94-25.5 91.49-24.23 92.04-22.95 93.44-21.15L93.44-21.15Q95.09-22.7 95.79-24 96.49-25.3 96.49-27.2L96.49-27.2Q96.49-31.15 93.74-31.15L93.74-31.15ZM92.54-15.25Q91.09-13.95 90.47-12.48 89.84-11 89.84-9L89.84-9Q89.84-6.5 91.04-5.15 92.24-3.8 94.29-3.8L94.29-3.8Q95.84-3.8 97.09-4.53 98.34-5.25 99.49-6.7L99.49-6.7 92.54-15.25ZM133.44-35.25Q136.44-35.25 138.74-34.2 141.04-33.15 142.99-31.05L142.99-31.05 140.04-27.65Q138.49-29.05 137.01-29.75 135.54-30.45 133.89-30.45L133.89-30.45Q131.99-30.45 130.89-29.28 129.79-28.1 129.79-26.2L129.79-26.2Q129.79-24.3 130.94-23.1 132.09-21.9 135.44-20.6L135.44-20.6Q139.74-18.85 141.76-16.5 143.79-14.15 143.79-9.85L143.79-9.85Q143.79-6.9 142.44-4.48 141.09-2.05 138.56-0.65 136.04 0.75 132.69 0.75L132.69 0.75Q129.24 0.75 126.69-0.48 124.14-1.7 122.04-3.95L122.04-3.95 125.24-7.45Q127.04-5.85 128.69-5 130.34-4.15 132.29-4.15L132.29-4.15Q134.59-4.15 135.86-5.58 137.14-7 137.14-9.45L137.14-9.45Q137.14-11.6 136.01-12.98 134.89-14.35 131.84-15.5L131.84-15.5Q127.24-17.35 125.21-19.75 123.19-22.15 123.19-25.75L123.19-25.75Q123.19-28.5 124.51-30.65 125.84-32.8 128.19-34.02 130.54-35.25 133.44-35.25L133.44-35.25ZM166.63-13.85Q166.63-13.4 166.48-11.3L166.48-11.3 152.83-11.3Q153.03-7.2 154.26-5.58 155.48-3.95 157.73-3.95L157.73-3.95Q159.28-3.95 160.53-4.48 161.78-5 163.23-6.15L163.23-6.15 165.78-2.65Q162.28 0.75 157.38 0.75L157.38 0.75Q152.18 0.75 149.41-2.85 146.63-6.45 146.63-13L146.63-13Q146.63-19.55 149.28-23.35 151.93-27.15 156.78-27.15L156.78-27.15Q161.43-27.15 164.03-23.78 166.63-20.4 166.63-13.85L166.63-13.85ZM160.63-15.3L160.63-15.65Q160.63-19.4 159.73-21.13 158.83-22.85 156.83-22.85L156.83-22.85Q154.98-22.85 154.01-21.18 153.03-19.5 152.83-15.3L152.83-15.3 160.63-15.3ZM176.53 0.75Q173.83 0.75 172.26-0.93 170.68-2.6 170.68-5.4L170.68-5.4 170.68-37.05 176.83-37.7 176.83-5.65Q176.83-5 177.13-4.6 177.43-4.2 178.03-4.2L178.03-4.2Q178.38-4.2 178.71-4.3 179.03-4.4 179.13-4.4L179.13-4.4 180.33-0.2Q178.63 0.75 176.53 0.75L176.53 0.75ZM188.98 0.75Q186.28 0.75 184.7-0.93 183.13-2.6 183.13-5.4L183.13-5.4 183.13-37.05 189.28-37.7 189.28-5.65Q189.28-5 189.58-4.6 189.88-4.2 190.48-4.2L190.48-4.2Q190.83-4.2 191.15-4.3 191.48-4.4 191.58-4.4L191.58-4.4 192.78-0.2Q191.08 0.75 188.98 0.75L188.98 0.75Z" opacity="1" transform="matrix(1,0,0,1,0,0)" fill="#f4ab4f" class="slogan-text-1" data-fill-palette-color="secondary" id="text-1"></path></svg></g></svg></g></svg></g></svg></g><g transform="matrix(1,0,0,1,63.93656701576816,0)"><svg viewBox="0 0 267.64686596846366 267.64686596846366" height="267.64686596846366" width="267.64686596846366"><g><svg></svg></g><g id="icon-0"><svg viewBox="0 0 267.64686596846366 267.64686596846366" height="267.64686596846366" width="267.64686596846366"><g><path transform="scale(2.67647,2.67647)" d="M30 100c-16.569 0-30-13.431-30-30v-40c0-16.569 13.431-30 30-30h40c16.569 0 30 13.431 30 30v40c0 16.569-13.431 30-30 30z" fill="#f4ab4f" fill-rule="nonzero" stroke="none" stroke-width="1" stroke-linecap="butt" stroke-linejoin="miter" stroke-miterlimit="10" stroke-dasharray="" stroke-dashoffset="0" font-family="none" font-weight="none" font-size="none" text-anchor="none" style="mix-blend-mode: normal" data-fill-palette-color="accent"></path></g><g transform="matrix(1,0,0,1,53.529373193692734,53.529373193692734)"><svg viewBox="0 0 160.5881195810782 160.5881195810782" height="160.5881195810782" width="160.5881195810782"><g><svg xmlns="http://www.w3.org/2000/svg" xmlns:xlink="http://www.w3.org/1999/xlink" version="1.1" x="0" y="0" viewBox="0 0 26 26" style="enable-background:new 0 0 26 26;" xml:space="preserve" height="160.5881195810782" width="160.5881195810782" class="icon-dxe-0" data-fill-palette-color="quaternary" id="dxe-0"><g fill="#d62176" data-fill-palette-color="quaternary"><path d="M13 0C5.82 0 0 5.82 0 13S5.82 26 13 26 26 20.18 26 13 20.18 0 13 0M11.248 20.07C10.077 21.242 8.093 21.157 5.945 19.01 3.798 16.862 4.178 13 4.178 13S8.04 12.62 10.188 14.768C12.335 16.915 12.42 18.899 11.248 20.07M10 9.5C10 6.463 13 4 13 4S16 6.463 16 9.5 14.656 14 13 14 10 12.537 10 9.5M20.055 19.01C17.907 21.157 15.923 21.242 14.752 20.07 13.58 18.899 13.665 16.915 15.812 14.767 17.96 12.62 21.822 13 21.822 13S22.202 16.862 20.055 19.01" fill="#d62176" data-fill-palette-color="quaternary"></path></g></svg></g></svg></g></svg></g></svg></g><g></g></svg></g><defs></defs></svg><rect width="226.3345337744357" height="247.2" fill="none" stroke="none" visibility="hidden"></rect></g></svg></g></svg>