<svg width="40" height="40" viewBox="0 0 82 82" fill="none" xmlns="http://www.w3.org/2000/svg" preserveAspectRatio="none">
<path d="M47.8334 41L34.1667 27.3333V37.5833H6.83337V44.4167H34.1667V54.6667M75.1667 41C75.1683 49.1642 72.2464 57.059 66.9301 63.2551C61.6138 69.4511 54.2546 73.5386 46.1849 74.7776C38.1153 76.0165 29.8688 74.3249 22.9386 70.0091C16.0084 65.6933 10.8527 59.0386 8.40504 51.25H15.6825C18.0612 57.1303 22.4111 62.0002 27.9865 65.0251C33.562 68.0501 40.016 69.0417 46.2424 67.83C52.4688 66.6184 58.0799 63.2789 62.1141 58.3839C66.1484 53.4889 68.3545 47.3432 68.3545 41C68.3545 34.6568 66.1484 28.5111 62.1141 23.6161C58.0799 18.7211 52.4688 15.3816 46.2424 14.17C40.016 12.9583 33.562 13.9499 27.9865 16.9748C22.4111 19.9998 18.0612 24.8697 15.6825 30.75H8.40504C10.8527 22.9614 16.0084 16.3067 22.9386 11.9909C29.8688 7.67507 38.1153 5.98349 46.1849 7.22243C54.2546 8.46137 61.6138 12.5489 66.9301 18.7449C72.2464 24.941 75.1683 32.8358 75.1667 41Z"/>
</svg>
